<svg width="28" height="30" viewBox="0 0 28 30" fill="none" xmlns="http://www.w3.org/2000/svg">
<path d="M9.77757 28.16V23.5734C9.77757 22.4026 10.7169 21.4534 11.8756 21.4534H16.1112C16.6676 21.4534 17.2013 21.6768 17.5947 22.0744C17.9882 22.4719 18.2092 23.0112 18.2092 23.5734V28.16C18.2057 28.6468 18.3946 29.1148 18.734 29.4603C19.0734 29.8057 19.5352 30 20.017 30H22.9067C24.2563 30.0035 25.5518 29.4642 26.5074 28.5012C27.463 27.5381 28 26.2305 28 24.8667V11.8003C28 10.6987 27.5167 9.65376 26.6805 8.947L16.8501 1.0138C15.1401 -0.377157 12.6901 -0.332247 11.0311 1.12047L1.42507 8.947C0.549302 9.63292 0.0258665 10.6809 0 11.8003V24.8534C0 27.6958 2.28035 30 5.09331 30H7.91706C8.9176 30 9.73073 29.1843 9.73798 28.1733L9.77757 28.16Z" fill="white"/>
</svg>
