<svg width="30" height="30" viewBox="0 0 30 30" fill="none" xmlns="http://www.w3.org/2000/svg">
<path d="M14.0622 13.1474C16.651 13.1474 18.7496 11.0517 18.7496 8.46653C18.7496 5.88135 16.651 3.78564 14.0622 3.78564C11.4734 3.78564 9.37476 5.88135 9.37476 8.46653C9.37476 11.0517 11.4734 13.1474 14.0622 13.1474Z" fill="white"/>
<path d="M23.4372 7.49054C25.5083 7.49054 27.1872 5.81372 27.1872 3.74527C27.1872 1.67681 25.5083 0 23.4372 0C21.3662 0 19.6873 1.67681 19.6873 3.74527C19.6873 5.81372 21.3662 7.49054 23.4372 7.49054Z" fill="white"/>
<path d="M29.2495 12.9859C28.7443 12.5053 28.0732 12.238 27.376 12.2398C26.6787 12.2415 26.0089 12.5121 25.5061 12.9952L21.4899 17.1202C21.5277 17.359 21.5465 17.6003 21.5462 17.8421C21.5325 19.081 21.0343 20.2654 20.1582 21.1415C19.2821 22.0176 18.0977 22.5159 16.8587 22.5295H14.9838C14.4875 22.5263 14.0124 22.3278 13.6615 21.9768C13.3105 21.6259 13.112 21.1508 13.1088 20.6545H16.7491C17.4284 20.6465 18.0847 20.4075 18.6101 19.9767C19.1354 19.5459 19.4984 18.9491 19.6393 18.2846C19.696 17.8842 19.6669 17.4763 19.5539 17.0881C19.4409 16.6998 19.2466 16.34 18.9838 16.0326C18.7211 15.7252 18.396 15.4772 18.0301 15.3051C17.6642 15.133 17.2659 15.0407 16.8616 15.0343H11.2272C9.83172 14.9469 8.43424 15.1711 7.13604 15.6905C6.45282 16.0186 5.84063 16.4776 5.33419 17.0415C4.89156 16.9719 4.43867 17.0105 4.01421 17.154C3.58975 17.2975 3.20633 17.5416 2.89672 17.8655C2.89672 17.8655 2.84984 17.9124 2.84984 17.9218L0.830491 19.9645C0.297831 20.5145 0 21.2501 0 22.0158C0 22.7814 0.297831 23.517 0.830491 24.067L5.80387 29.1435C6.0684 29.4138 6.3841 29.6287 6.73256 29.7757C7.08101 29.9227 7.45525 29.9989 7.83344 29.9998C8.21164 30.0006 8.58623 29.9262 8.93536 29.7808C9.28449 29.6354 9.60117 29.4219 9.86695 29.1529C10.5598 28.4441 11.2479 27.7279 11.95 27.0266C12.3998 26.5663 12.6863 25.9713 12.7657 25.3326H20.1606C20.2826 25.3338 20.4037 25.3103 20.5164 25.2636C20.6292 25.2169 20.7314 25.1479 20.8168 25.0607L29.2542 16.7058C29.7333 16.2048 30.0003 15.5381 29.9994 14.8449C29.9985 14.1517 29.7299 13.4857 29.2495 12.9859Z" fill="white"/>
</svg>
