<svg width="30" height="30" viewBox="0 0 30 30" fill="none" xmlns="http://www.w3.org/2000/svg">
<path d="M0 26.7857C0 28.6071 1.39286 30 3.21429 30H26.7857C28.6071 30 30 28.6071 30 26.7857V10.7143H0V26.7857ZM26.7857 2.14286H25.7143V1.07143C25.7143 0.428571 25.2857 0 24.6429 0C24 0 23.5714 0.428571 23.5714 1.07143V2.14286H19.2857V1.07143C19.2857 0.428571 18.8571 0 18.2143 0C17.5714 0 17.1429 0.428571 17.1429 1.07143V2.14286H12.8571V1.07143C12.8571 0.428571 12.4286 0 11.7857 0C11.1429 0 10.7143 0.428571 10.7143 1.07143V2.14286H6.42857V1.07143C6.42857 0.428571 6 0 5.35714 0C4.71429 0 4.28571 0.428571 4.28571 1.07143V2.14286H3.21429C1.39286 2.14286 0 3.53571 0 5.35714V8.57143H30V5.35714C30 3.53571 28.6071 2.14286 26.7857 2.14286ZM21.4286 6.42857H8.57143C7.92857 6.42857 7.5 6 7.5 5.35714C7.5 4.71429 7.92857 4.28571 8.57143 4.28571H21.4286C22.0714 4.28571 22.5 4.71429 22.5 5.35714C22.5 6 22.0714 6.42857 21.4286 6.42857Z" fill="white"/>
</svg>
