<svg width="35" height="35" viewBox="0 0 35 35" fill="none" xmlns="http://www.w3.org/2000/svg">
<path fill-rule="evenodd" clip-rule="evenodd" d="M29.5312 19.6875C29.5312 19.3974 29.416 19.1192 29.2109 18.9141C29.0058 18.709 28.7276 18.5938 28.4375 18.5938H6.5625C6.27242 18.5938 5.99422 18.709 5.7891 18.9141C5.58398 19.1192 5.46875 19.3974 5.46875 19.6875V31.7188C5.46846 32.1497 5.55314 32.5765 5.71793 32.9748C5.88273 33.373 6.12441 33.7348 6.42916 34.0396C6.73391 34.3443 7.09575 34.586 7.49398 34.7508C7.89221 34.9156 8.31902 35.0003 8.75 35H26.25C27.1206 35 27.9563 34.6533 28.5688 34.0375C29.1845 33.4239 29.5312 32.5883 29.5312 31.7188V19.6875ZM29.5312 3.28125C29.5312 2.41063 29.1856 1.57609 28.5698 0.961406C28.2654 0.656499 27.9037 0.414637 27.5057 0.249666C27.1076 0.0846947 26.6809 -0.000146088 26.25 1.88828e-07H8.75C7.87937 1.88828e-07 7.04484 0.345625 6.43016 0.961406C6.12525 1.26588 5.88339 1.62751 5.71842 2.02558C5.55344 2.42365 5.4686 2.85035 5.46875 3.28125V13.125C5.46875 13.9956 5.81438 14.8302 6.43016 15.4448C6.73463 15.7498 7.09626 15.9916 7.49433 16.1566C7.8924 16.3216 8.3191 16.4064 8.75 16.4062H26.25C27.1206 16.4062 27.9552 16.0606 28.5698 15.4448C28.8748 15.1404 29.1166 14.7787 29.2816 14.3807C29.4466 13.9826 29.5314 13.5559 29.5312 13.125V3.28125ZM13.125 4.375C12.2694 4.39709 11.4563 4.75249 10.859 5.36543C10.2617 5.97838 9.92739 6.80039 9.92739 7.65625C9.92739 8.51211 10.2617 9.33412 10.859 9.94707C11.4563 10.56 12.2694 10.9154 13.125 10.9375C13.9806 10.9154 14.7937 10.56 15.391 9.94707C15.9883 9.33412 16.3226 8.51211 16.3226 7.65625C16.3226 6.80039 15.9883 5.97838 15.391 5.36543C14.7937 4.75249 13.9806 4.39709 13.125 4.375ZM21.875 4.375C21.0194 4.39709 20.2063 4.75249 19.609 5.36543C19.0117 5.97838 18.6774 6.80039 18.6774 7.65625C18.6774 8.51211 19.0117 9.33412 19.609 9.94707C20.2063 10.56 21.0194 10.9154 21.875 10.9375C22.7306 10.9154 23.5437 10.56 24.141 9.94707C24.7383 9.33412 25.0726 8.51211 25.0726 7.65625C25.0726 6.80039 24.7383 5.97838 24.141 5.36543C23.5437 4.75249 22.7306 4.39709 21.875 4.375ZM31.5317 18.5938H31.7188C32.5894 18.5938 33.4239 18.9394 34.0386 19.5552C34.6544 20.1698 35 21.0044 35 21.875V28.4375C35 29.3081 34.6544 30.1427 34.0386 30.7573C33.7341 31.0623 33.3725 31.3041 32.9744 31.4691C32.5763 31.6341 32.1497 31.7189 31.7188 31.7188V19.6875C31.7188 19.3036 31.6531 18.9361 31.5317 18.5938ZM3.46828 18.5938H3.28125C2.41063 18.5938 1.57609 18.9394 0.961406 19.5552C0.656499 19.8596 0.414637 20.2213 0.249666 20.6193C0.0846947 21.0174 -0.000146088 21.4441 1.88828e-07 21.875V28.4375C1.88828e-07 29.3081 0.345625 30.1427 0.961406 30.7573C1.26588 31.0623 1.62751 31.3041 2.02558 31.4691C2.42365 31.6341 2.85035 31.7189 3.28125 31.7188V19.6875C3.28125 19.3036 3.34688 18.9361 3.46828 18.5938Z" fill="url(#paint0_linear_1_458)"/>
<defs>
<linearGradient id="paint0_linear_1_458" x1="17.5" y1="0" x2="17.5" y2="35" gradientUnits="userSpaceOnUse">
<stop stop-color="#2F90FF"/>
<stop offset="1" stop-color="#2F6AFF"/>
</linearGradient>
</defs>
</svg>
