<svg width="45" height="45" viewBox="0 0 45 45" fill="none" xmlns="http://www.w3.org/2000/svg">
<rect width="45" height="45" rx="22.5" fill="#2F90FF"/>
<path d="M13.12 31.536V26.712C13.516 26.82 13.984 26.856 14.344 26.856C15.64 26.856 16.864 26.424 17.512 25.344C15.064 24.408 13.48 22.428 13.48 19.692C13.48 16.092 16.252 13.5 20.392 13.5H30.076V31.608H24.82V25.956H23.164L22.264 27.648C20.752 30.456 18.412 31.86 15.568 31.86C14.776 31.86 13.948 31.752 13.12 31.536ZM20.644 18.036C19.528 18.036 18.88 18.72 18.88 19.728C18.88 20.736 19.528 21.42 20.644 21.42H24.82V18.036H20.644Z" fill="white"/>
</svg>
